#!OML:ASF I:\Actors\actors\Patient Classification 2\Patient 1\Session 1\actor1.ASF
:FULLY-SPECIFIED
:DEGREES
1017
root -1.07233 18.1124 5.64492 -1.60463 -3.56221 -4.66345
lowerback 2.23305 0.47879 2.64745
upperback 0.327058 0.721055 1.97893
thorax -0.909475 0.353968 0.52267
lowerneck -11.7937 -1.6736 -2.43016
upperneck 19.0651 -2.71797 4.31376
head 7.92431 -1.05517 1.55191
rclavicle 1.99755e-015 -3.08116e-015
rhumerus -45.839 -0.0334788 -87.2009
rradius 41.2028
rwrist 19.9237
rhand -6.99196 -26.9671
rfingers 7.12502
rthumb 18.8786 -56.0709
lclavicle 1.99755e-015 -3.08116e-015
lhumerus -41.5999 1.24523 91.9272
lradius 40.5088
lwrist -8.88831
lhand -3.37518 -23.8849
lfingers 7.12502
lthumb 22.3539 4.84182
rfemur 0 0 0
rtibia 0
rfoot 0 0
rtoes 0
lfemur 19.4782 -8.13847 -12.4219
ltibia -17.6683
lfoot -5.42668 21.8717
ltoes -6.40368
1018
root -1.07273 18.112 5.64834 -1.582 -3.59624 -4.69011
lowerback 2.22252 0.522838 2.64311
upperback 0.303085 0.779919 1.96843
thorax -0.927468 0.383112 0.512589
lowerneck -11.7625 -1.68535 -2.37651
upperneck 19.1251 -2.74044 4.27814
head 7.93823 -1.06523 1.52929
rclavicle -1.16541e-014 -7.8023e-015
rhumerus -45.8406 -0.132564 -87.1566
rradius 41.254
rwrist 19.8889
rhand -7.11014 -27.1108
rfingers 7.12502
rthumb 18.7649 -56.2257
lclavicle -1.16541e-014 -7.8023e-015
lhumerus -41.5865 1.21292 91.8617
lradius 40.4237
lwrist -8.92767
lhand -3.45857 -23.952
lfingers 7.12502
lthumb 22.2738 4.78435
rfemur 0 0 0
rtibia 0
rfoot 0 0
rtoes 0
lfemur 19.4891 -8.16111 -12.4008
ltibia -17.6923
lfoot -5.45012 21.9352
ltoes -6.24993
1019
root -1.07367 18.1115 5.65123 -1.55931 -3.62499 -4.72961
lowerback 2.21709 0.550729 2.64834
upperback 0.285587 0.81754 1.96529
thorax -0.941864 0.401676 0.505292
lowerneck -11.7237 -1.66885 -2.32783
upperneck 19.1768 -2.72257 4.24272
head 7.94654 -1.05663 1.51176
rclavicle -5.07949e-015 -8.84592e-015
rhumerus -45.8202 -0.18991 -87.1324
rradius 41.3235
rwrist 19.8462
rhand -7.08691 -27.2796
rfingers 7.12502
rthumb 18.7872 -56.3923
lclavicle -5.07949e-015 -8.84592e-015
lhumerus -41.5534 1.23939 91.768
lradius 40.3017
lwrist -8.9985
lhand -3.47899 -24.1174
lfingers 7.12502
lthumb 22.2542 4.62131
rfemur 0 0 0
rtibia 0
rfoot 0 0
rtoes 0
lfemur 19.5079 -8.13465 -12.3539
ltibia -17.7386
lfoot -5.43161 21.9488
ltoes -6.23155
1020
root -1.0739 18.1114 5.65371 -1.53931 -3.64243 -4.79646
lowerback 2.19617 0.560198 2.69173
upperback 0.282735 0.830511 1.97642
thorax -0.932482 0.40808 0.492287
lowerneck -11.7953 -1.68042 -2.28599
upperneck 19.3248 -2.7317 4.14651
head 8.00714 -1.065 1.47227
rclavicle 2.7164e-015 5.46658e-016
rhumerus -45.7711 -0.256077 -87.0846
rradius 41.3689
rwrist 19.8934
rhand -6.95865 -27.3001
rfingers 7.12502
rthumb 18.9106 -56.4009
lclavicle 2.7164e-015 5.46658e-016
lhumerus -41.5206 1.28091 91.6841
lradius 40.2287
lwrist -8.9641
lhand -3.48599 -24.1311
lfingers 7.12502
lthumb 22.2475 4.60836
rfemur 0 0 0
rtibia 0
rfoot 0 0
rtoes 0
lfemur 19.5379 -8.22108 -12.2944
ltibia -17.7898
lfoot -5.49598 22.0461
ltoes -6.07893
1021
root -1.07345 18.1119 5.65609 -1.52668 -3.63746 -4.87828
lowerback 2.16537 0.562198 2.74501
upperback 0.287388 0.833211 2.00313
thorax -0.910059 0.4095 0.49017
lowerneck -11.9951 -1.7447 -2.13773
upperneck 19.6191 -2.79277 3.82973
head 8.13713 -1.10905 1.33586
rclavicle 2.49471e-015 -1.90336e-014
rhumerus -45.7185 -0.339656 -86.9991
rradius 41.3699
rwrist 19.9393
rhand -6.96395 -27.185
rfingers 7.12502
rthumb 18.9055 -56.2862
lclavicle 2.49471e-015 -1.90336e-014
lhumerus -41.5208 1.29341 91.6385
lradius 40.2152
lwrist -8.92506
lhand -3.55606 -24.0755
lfingers 7.12502
lthumb 22.1802 4.67203
rfemur 0 0 0
rtibia 0
rfoot 0 0
rtoes 0
lfemur 19.5653 -8.32825 -12.2204
ltibia -17.8303
lfoot -5.52595 22.1324
ltoes -6.06783
1022
root -1.07326 18.1131 5.6582 -1.49642 -3.6234 -4.9093
lowerback 2.12504 0.55962 2.74369
upperback 0.282105 0.828283 2.01418
thorax -0.893117 0.407187 0.502787
lowerneck -12.0905 -1.77112 -1.97111
upperneck 19.804 -2.80397 3.52307
head 8.20992 -1.12961 1.20465
rclavicle 1.18487e-014 2.23136e-014
rhumerus -45.6623 -0.396257 -86.9351
rradius 41.3474
rwrist 19.9078
rhand -7.08935 -27.117
rfingers 7.12502
rthumb 18.7849 -56.23
lclavicle 1.18487e-014 2.23136e-014
lhumerus -41.5391 1.32995 91.5842
lradius 40.2424
lwrist -8.99879
lhand -3.57644 -24.0275
lfingers 7.12502
lthumb 22.1606 4.72235
rfemur 0 0 0
rtibia 0
rfoot 0 0
rtoes 0
lfemur 19.5513 -8.32493 -12.1816
ltibia -17.8566
lfoot -5.47516 22.1249
ltoes -6.23467
1023
root -1.07237 18.1133 5.66039 -1.46032 -3.61666 -4.86709
lowerback 2.0928 0.56054 2.68993
upperback 0.264481 0.827327 1.99611
thorax -0.893612 0.406786 0.514588
lowerneck -12.0693 -1.76055 -1.88773
upperneck 19.8599 -2.78055 3.39125
head 8.22094 -1.12515 1.14957
rclavicle 5.39669e-017 3.84151e-014
rhumerus -45.6085 -0.378498 -86.9215
rradius 41.3319
rwrist 19.8242
rhand -7.17105 -27.2005
rfingers 7.12502
rthumb 18.7063 -56.3211
lclavicle 5.39669e-017 3.84151e-014
lhumerus -41.5609 1.38837 91.5173
lradius 40.286
lwrist -9.06071
lhand -3.43376 -23.9872
lfingers 7.12502
lthumb 22.2976 4.74636
rfemur 0 0 0
rtibia 0
rfoot 0 0
rtoes 0
lfemur 19.5212 -8.33053 -12.2311
ltibia -17.8677
lfoot -5.47721 22.1396
ltoes -6.35848
1024
root -1.07087 18.1125 5.66303 -1.44997 -3.59958 -4.83198
lowerback 2.0714 0.562926 2.66107
upperback 0.26148 0.828909 1.98027
thorax -0.884847 0.407725 0.514651
lowerneck -12.0512 -1.75499 -1.90591
upperneck 19.9254 -2.77342 3.40068
head 8.23977 -1.12184 1.15685
rclavicle -3.80467e-015 1.15792e-014
rhumerus -45.5704 -0.359554 -86.9045
rradius 41.3319
rwrist 19.8249
rhand -7.18314 -27.2089
rfingers 7.12502
rthumb 18.6947 -56.3306
lclavicle -3.80467e-015 1.15792e-014
lhumerus -41.5631 1.48723 91.4464
lradius 40.2942
lwrist -9.12846
lhand -3.27627 -24.0267
lfingers 7.12502
lthumb 22.4488 4.68865
rfemur 0 0 0
rtibia 0
rfoot 0 0
rtoes 0
lfemur 19.5144 -8.37641 -12.2838
ltibia -17.8648
lfoot -5.4984 22.1644
ltoes -6.26902
1025
root -1.06995 18.1122 5.6661 -1.44113 -3.5875 -4.84579
lowerback 2.04426 0.578851 2.67455
upperback 0.263613 0.849178 1.9749
thorax -0.86696 0.417972 0.501371
lowerneck -12.0449 -1.74927 -1.93776
upperneck 20.0086 -2.77163 3.44727
head 8.26759 -1.11809 1.17826
rclavicle 4.97486e-015 -1.84373e-014
rhumerus -45.5357 -0.433978 -86.8632
rradius 41.3149
rwrist 19.8832
rhand -7.17705 -27.1391
rfingers 7.12502
rthumb 18.7005 -56.2602
lclavicle 4.97486e-015 -1.84373e-014
lhumerus -41.5202 1.58163 91.4044
lradius 40.2201
lwrist -9.23975
lhand -3.28793 -24.0825
lfingers 7.12502
lthumb 22.4376 4.63417
rfemur 0 0 0
rtibia 0
rfoot 0 0
rtoes 0
lfemur 19.5078 -8.37617 -12.2707
ltibia -17.8542
lfoot -5.50449 22.1462
ltoes -6.01008
1026
root -1.06943 18.1128 5.66898 -1.42486 -3.60141 -4.84017
lowerback 2.02822 0.607459 2.64655
upperback 0.246472 0.886419 1.95562
thorax -0.875259 0.4365 0.496334
lowerneck -12.0294 -1.73634 -1.86092
upperneck 20.0985 -2.76123 3.39343
head 8.29278 -1.11213 1.14894
rclavicle 7.97196e-015 -9.93923e-016
rhumerus -45.5327 -0.531064 -86.8549
rradius 41.3053
rwrist 19.8568
rhand -7.21964 -27.0734
rfingers 7.12502
rthumb 18.6596 -56.1985
lclavicle 7.97196e-015 -9.93923e-016
lhumerus -41.5073 1.59569 91.376
lradius 40.138
lwrist -9.26973
lhand -3.36582 -24.0837
lfingers 7.12502
lthumb 22.3628 4.64202
rfemur 0 0 0
rtibia 0
rfoot 0 0
rtoes 0
lfemur 19.5028 -8.37297 -12.2825
ltibia -17.8497
lfoot -5.53604 22.1575
ltoes -5.95315
1027
root -1.06888 18.1133 5.67199 -1.4225 -3.60679 -4.81438
lowerback 2.01853 0.616941 2.59397
upperback 0.227092 0.897956 1.93577
thorax -0.89006 0.442208 0.505065
lowerneck -12.0143 -1.72713 -1.77045
upperneck 20.2256 -2.75124 3.29866
head 8.32986 -1.10913 1.10368
rclavicle -4.243e-015 -2.6339e-015
rhumerus -45.5797 -0.561092 -86.8841
rradius 41.3478
rwrist 19.7946
rhand -7.25772 -27.047
rfingers 7.12502
rthumb 18.6229 -56.1756
lclavicle -4.243e-015 -2.6339e-015
lhumerus -41.5846 1.56959 91.335
lradius 40.1524
lwrist -9.18685
lhand -3.36366 -24.0043
lfingers 7.12502
lthumb 22.3649 4.72117
rfemur 0 0 0
rtibia 0
rfoot 0 0
rtoes 0
lfemur 19.5159 -8.34043 -12.315
ltibia -17.8564
lfoot -5.53197 22.1393
ltoes -6.16745
1028
root -1.06854 18.113 5.67488 -1.42577 -3.59182 -4.83693
lowerback 2.01163 0.612713 2.61437
upperback 0.218077 0.892723 1.93048
thorax -0.895092 0.439423 0.488398
lowerneck -12.0171 -1.72181 -1.74461
upperneck 20.36 -2.7439 3.25372
head 8.37438 -1.10707 1.08549
rclavicle -7.36066e-015 -5.69021e-015
rhumerus -45.6172 -0.589467 -86.9108
rradius 41.3849
rwrist 19.771
rhand -7.27353 -27.0736
rfingers 7.12502
rthumb 18.6077 -56.2036
lclavicle -7.36066e-015 -5.69021e-015
lhumerus -41.6546 1.56998 91.3015
lradius 40.1824
lwrist -9.15847
lhand -3.36264 -23.9869
lfingers 7.12502
lthumb 22.3659 4.73842
rfemur 0 0 0
rtibia 0
rfoot 0 0
rtoes 0
lfemur 19.5246 -8.23298 -12.2708
ltibia -17.865
lfoot -5.48438 22.027
ltoes -6.30746
1029
root -1.06821 18.1124 5.67689 -1.42497 -3.59149 -4.88904
lowerback 2.00872 0.617653 2.67462
upperback 0.213136 0.900619 1.92583
thorax -0.897447 0.443088 0.449743
lowerneck -11.9968 -1.71333 -1.74642
upperneck 20.4342 -2.7367 3.26445
head 8.39562 -1.10233 1.09053
rclavicle -1.74034e-015 1.51325e-014
rhumerus -45.6492 -0.616708 -86.9399
rradius 41.4225
rwrist 19.7357
rhand -7.2758 -27.1174
rfingers 7.12502
rthumb 18.6055 -56.2476
lclavicle -1.74034e-015 1.51325e-014
lhumerus -41.6874 1.56254 91.2764
lradius 40.1849
lwrist -9.17843
lhand -3.39532 -24.0697
lfingers 7.12502
lthumb 22.3345 4.65943
rfemur 0 0 0
rtibia 0
rfoot 0 0
rtoes 0
lfemur 19.5323 -8.20555 -12.2076
ltibia -17.8649
lfoot -5.47543 21.9958
ltoes -6.37812
